# xmcd CD database file
#
# Track frame offsets:
#	150
#	24055
#	40330
#	63122
#	86260
#	105102
#	126790
#	152242
#	170507
#	196497
#	207520
#
# Disc length: 2913 seconds
#
# Revision: 1
# Processed by: cddbd v1.5.2PL0 Copyright (c) Steve Scherf et al.
# Submitted via: CDex 1.70beta2
#
DISCID=820b5f0b
DTITLE=The Gunmen - Dusty Roads
DYEAR=1995
DGENRE=Tex-Mex
TTITLE0=Sundown For A Desperado
TTITLE1=Gunmen Polka
TTITLE2=Send You Roses 
TTITLE3=Coward
TTITLE4=It's All Over Now
TTITLE5=Blood In The Ocean
TTITLE6=Prisoner Of The Past
TTITLE7=Going Up The Country
TTITLE8=A Rail Trail
TTITLE9=Dusty Roads
TTITLE10=Whisky In The Jar
EXTD=YEAR: 1995
EXTT0=
EXTT1=
EXTT2=
EXTT3=
EXTT4=
EXTT5=
EXTT6=
EXTT7=
EXTT8=
EXTT9=
EXTT10=
PLAYORDER=
